<svg xmlns="http://www.w3.org/2000/svg" style="display: none;"><symbol id="tick" viewBox="0 0 512 512"><title>tick</title><path style="fill:#A5EB78;" d="M433.139,67.108L201.294,298.953c-6.249,6.249-16.381,6.249-22.63,0L78.861,199.15L0,278.011 l150.547,150.549c10.458,10.458,24.642,16.333,39.431,16.333l0,0c14.788,0,28.973-5.876,39.43-16.333L512,145.968L433.139,67.108z"/><g style="opacity:0.1;"> <path d="M485.921,119.888L187.59,418.22c-8.254,8.253-18.633,13.882-29.847,16.391c9.363,6.635,20.608,10.28,32.235,10.28l0,0 c14.788,0,28.973-5.876,39.43-16.333L512,145.966L485.921,119.888z"/> </g></symbol><symbol id="cross" viewBox="0 0 511.999 511.999"><title>cross</title><path style="fill:#FF6465;" d="M384.955,256l120.28-120.28c9.019-9.019,9.019-23.642,0-32.66L408.94,6.765 c-9.019-9.019-23.642-9.019-32.66,0l-120.28,120.28L135.718,6.765c-9.019-9.019-23.642-9.019-32.66,0L6.764,103.058 c-9.019,9.019-9.019,23.642,0,32.66l120.28,120.28L6.764,376.28c-9.019,9.019-9.019,23.642,0,32.66l96.295,96.294 c9.019,9.019,23.642,9.019,32.66,0l120.28-120.28l120.28,120.28c9.019,9.019,23.642,9.019,32.66,0l96.295-96.294 c9.019-9.019,9.019-23.642,0-32.66L384.955,256z"/></symbol></svg>